<svg width="158" height="32" viewBox="0 0 158 32" fill="none" xmlns="http://www.w3.org/2000/svg">
<g clip-path="url(#clip0_26_104)">
<path d="M67.506 1.02719V24.7573L67.2968 24.881C65.97 25.0997 64.6622 25.4611 63.3354 25.6942C59.0983 26.4408 55.1226 27.2017 51.0899 25.1806C46.3724 22.8123 46.2678 13.6294 48.7122 9.65849C50.329 7.03344 55.4555 6.55313 58.2375 6.90504C59.6309 7.08099 60.9672 7.53277 62.313 7.89419V1.02719H67.506ZM56.5208 10.0104C54.8516 10.1721 53.3155 10.9472 52.7449 12.5974C52.041 14.6375 51.8318 20.3442 53.3631 21.9848C55.3842 24.1581 61.8993 23.7777 62.2322 19.9019C62.3748 18.2375 62.3748 15.0322 62.2322 13.3726C61.9801 10.5763 58.889 9.77263 56.5255 10.0056L56.5208 10.0104Z" fill="#006496"/>
<path d="M100.324 1.02719V7.88943C101.032 7.74677 101.717 7.45192 102.43 7.27597C105.759 6.45326 112.16 6.48655 114.067 9.9248C116.279 13.9099 116.145 23.0596 111.404 25.2852C107.438 27.1494 103.424 26.417 99.3013 25.6894C97.9365 25.4469 96.5907 25.0664 95.2163 24.8762V1.02719H100.324ZM104.409 10.0104C102.568 10.1864 100.661 11.185 100.485 13.2061C100.29 15.4507 100.633 17.9664 100.485 20.2396C100.842 24.0107 108.147 24.0915 109.597 21.4808C110.71 19.4739 110.767 12.8685 109.026 11.1993C107.966 10.1768 105.812 9.87725 104.404 10.0104H104.409Z" fill="#006496"/>
<path d="M141.431 14.5044L137.032 14.8325L136.989 24.8762C134.112 25.4136 131.23 26.0556 128.315 26.3742C124.634 26.7784 119.303 25.5563 118.362 21.3666C117.491 17.4909 123.089 14.9609 126.075 14.1715C128.653 13.4915 131.534 13.1015 134.188 12.8257C138.596 12.3739 143.029 12.2265 147.456 12.2408C146.957 13.6103 146.543 14.999 146.453 16.4684C146.3 18.9746 146.476 21.5854 146.538 24.082C146.552 24.7098 146.519 25.3423 146.538 25.97H141.431V14.5044ZM132.057 15.5078C129.228 15.6457 124.829 16.3448 123.559 19.2742C121.662 23.6635 129.299 24.5433 131.301 22.0752C131.558 21.7613 132.057 20.7864 132.057 20.4013V15.503V15.5078Z" fill="#006496"/>
<path d="M76.9695 7.22366V20.7436C76.9695 20.8055 77.1597 21.3191 77.2073 21.4284C78.1726 23.7539 82.5335 24.0583 84.3976 22.7315C84.897 22.3796 85.7577 21.3619 85.7577 20.7436V7.22366H90.8651V24.7573C90.7272 24.9523 90.4704 24.8572 90.2564 24.9047C85.4819 26.0128 76.551 28.2907 72.9035 23.8775C72.6324 23.5542 71.9429 22.3653 71.9429 21.9944V7.22366H76.9647H76.9695Z" fill="#006496"/>
<path d="M4.2145 4.08501C4.53788 1.34582 8.57533 0.18071 10.8723 0.0237774C12.8743 -0.114133 14.8526 0.328132 16.8167 0.442265C17.8248 0.499331 18.8616 0.399465 19.8745 0.442265L19.9601 25.9747H17.1971V5.67335C17.1448 4.73651 16.7739 2.59177 15.7134 2.30643C14.5958 2.00684 11.752 1.71675 10.6297 1.86893C9.50741 2.0211 8.17586 2.47288 7.50533 3.42874C7.39596 3.58092 7.07258 4.19914 7.07258 4.33705V7.22366H11.5095V8.81201H7.07258V25.97H4.22401V8.81201H0.781006V7.22366H4.2145C4.3001 6.22975 4.10037 5.05513 4.2145 4.08501Z" fill="#FF8200"/>
<path d="M27.4882 7.22366V21.9135C27.4882 22.3558 28.2633 23.2023 28.6295 23.4495C30.9977 25.0284 37.5556 25.2234 38.9728 22.2654C39.0108 22.1846 39.2105 21.6948 39.2105 21.6662V7.22366H41.9735V32H39.0441V25.6371L32.8096 26.5597C30.0799 26.5692 26.5561 25.9747 25.0771 23.402C24.9059 23.1024 24.4731 22.1275 24.4731 21.8279V7.22366H27.4882Z" fill="#FF8200"/>
<path d="M119.332 11.9126V8.39828C120.254 8.17001 121.167 7.72299 122.09 7.51375C126.056 6.62446 132.219 5.83504 135.534 8.73116C135.791 8.95467 136.804 10.0722 136.747 10.3623C136.704 10.5763 135.834 10.4764 135.62 10.4907C134.278 10.5906 132.937 10.719 131.601 10.8331C131.221 10.6904 130.959 10.3908 130.56 10.1959C128.462 9.1877 124.786 9.78214 122.604 10.4479C121.434 10.8046 120.421 11.3705 119.337 11.9126H119.332Z" fill="#006496"/>
<path d="M153.633 9.16867C158.332 8.53143 158.375 15.5554 153.947 15.2558C150.238 15.0037 150.133 9.64423 153.633 9.16867Z" fill="#FF8200"/>
<path d="M146.453 7.22366H141.431V10.2387H146.453V7.22366Z" fill="#006496"/>
</g>
<defs>
<clipPath id="clip0_26_104">
<rect width="156.438" height="32" fill="white" transform="translate(0.781006)"/>
</clipPath>
</defs>
</svg>
